<?xml version="1.0" encoding="utf-8"?>
<!-- Generator: Adobe Illustrator 16.0.4, SVG Export Plug-In . SVG Version: 6.00 Build 0)  -->
<!DOCTYPE svg PUBLIC "-//W3C//DTD SVG 1.1//EN" "http://www.w3.org/Graphics/SVG/1.1/DTD/svg11.dtd">
<svg version="1.1" id="Layer_1" xmlns="http://www.w3.org/2000/svg" xmlns:xlink="http://www.w3.org/1999/xlink" x="0px" y="0px"
	 width="954.167px" height="454.167px" viewBox="0 0 954.167 454.167" enable-background="new 0 0 954.167 454.167"
	 xml:space="preserve">
<g>
	<path fill="#EE272C" d="M223.948,21.833c7.93,11.43,15.63,23.021,23.54,34.47c-15.39-3.7-31.6-3.73-46.98,0
		C208.357,44.833,216.127,33.323,223.948,21.833L223.948,21.833z"/>
	<path fill="#EE272C" d="M355.478,49.593c6.27-9.28,12.54-18.57,18.87-27.81c5.84,8.76,11.86,17.39,17.7,26.16
		c1.21,1.76,2.35,3.66,4.18,4.86c9.44,6.48,19,12.79,28.37,19.37c-9.93,6.87-20.18,13.33-29.87,20.52
		c-7.07,9.7-13.58,19.83-20.37,29.74c-5.54-8.07-11.03-16.18-16.5-24.29c-1.75-2.53-3.25-5.4-5.92-7.101
		c-9.34-6.29-18.67-12.59-27.96-18.95c9.19-6.22,18.36-12.46,27.56-18.65C353.087,52.433,354.467,51.153,355.478,49.593
		L355.478,49.593z"/>
	<path fill="#EE272C" d="M191.098,77.042c22.47-10.08,49.53-9.1,71.17,2.66c1.3,0.64,2.27,1.74,3.07,2.93
		c9.32,13.76,18.59,27.54,28.03,41.22c-24.28,0.27-48.19,9.94-65.89,26.53c3.89,3.95,7.36,8.28,10.58,12.79
		c17.45-16.84,42.62-25.31,66.69-22c1.84,15.91-0.69,32.35-8.03,46.64c-9.7,19.29-27.37,34.42-47.96,40.949
		c-19.67,6.388-41.71,4.788-60.29-4.279c-5.45,2.93-10.53,6.509-15.229,10.536c18.63,11.551,41.37,16.211,63.05,13.37
		c20.27-2.37,39.6-11.579,54.49-25.486c19.37-18,31.1-43.99,31.26-70.48c12.75,8.78,25.61,17.42,38.45,26.1
		c1.92,1.4,4.24,2.479,5.52,4.59c11.311,20.37,12.94,45.749,4.54,67.467c-0.4,1.439-1.55,2.42-2.74,3.22
		c-16.11,11-31.37,23.211-45.82,36.301c-0.44-23.951-10.19-47.411-26.53-64.877c-3.99,3.87-8.28,7.417-12.83,10.597
		c10.92,11.449,18.58,26.009,21.41,41.61c1.6,8.199,1.45,16.619,0.7,24.91c-18.65,2.5-38.06-1.842-53.89-11.98
		c-13.74-8.631-24.5-21.611-31.17-36.341c-6.29-0.311-12.55-1.1-18.7-2.43c5.47,15.989,14.61,30.851,27.23,42.19
		c17.39,16.01,40.73,25.469,64.4,25.75c-12.41,14.09-24.3,28.67-34.85,44.219c-1.14,1.541-2.14,3.451-4.12,4.021
		c-21.85,8.699-47.52,7.24-68.17-4.051c-1.76-0.9-2.74-2.68-3.84-4.23c-8.95-13.369-18.12-26.59-27.05-39.979
		c24.28,0.059,48.11-9.91,65.89-26.291c-3.81-4.07-7.41-8.33-10.68-12.85c-17.43,16.83-42.59,25.35-66.65,21.939
		c-1.83-15.959,0.76-32.469,8.15-46.79c8.49-16.89,23.13-30.396,40.36-38.046c0.26-6.3,1.03-12.57,2.48-18.7
		c-22.45,7.37-42.18,22.79-54.27,43.156c-8.95,14.75-13.73,31.921-14,49.161c-13.8-9.521-27.74-18.842-41.6-28.262
		c-0.97-0.67-1.89-1.46-2.43-2.519c-13.18-23.9-13.23-54.958,0.95-78.397c14.14-10.12,28.82-19.5,43.08-29.48
		c0.23,24.29,9.99,48.15,26.55,65.87c4.01-3.89,8.34-7.43,12.9-10.65c-17.02-17.28-25.23-42.46-22.14-66.48
		c16.65-2.2,33.93,0.98,48.7,8.98c16.14,8.55,28.9,22.8,36.41,39.37c6.31,0.27,12.59,1.06,18.75,2.439
		c-7.12-21.12-21.12-39.93-39.92-52.03c-15.52-10.26-33.99-15.77-52.57-16.09c9.47-13.67,18.73-27.48,28.07-41.25
		C184.478,79.563,188.087,78.533,191.098,77.042L191.098,77.042z"/>
	<path fill="#EE272C" d="M474.007,145.153c10.229-15.18,20.558-30.28,30.797-45.45c11.061,15.82,21.521,32.09,32.75,47.77
		c15.341,11,31.32,21.15,46.711,32.1c-41.961,2.13-83.57,11-122.938,25.65c-12.29-8.37-24.61-16.68-36.91-25.03
		c15.32-10.67,30.89-20.98,46.3-31.52C472.068,147.763,473.098,146.483,474.007,145.153L474.007,145.153z"/>
	<path fill="#EE272C" d="M624.165,146.193c6.75-6.92,13.771-13.57,20.521-20.49c5.05,11.22,9.409,22.79,14.789,33.84
		c8.301,8.67,16.91,17.061,25.33,25.63c-28.68-5.12-57.88-7.18-87-6.4c-4.239-4.3-8.479-8.58-12.72-12.86
		c10.47-4.44,20.92-8.95,31.4-13.38C619.635,151.252,621.775,148.483,624.165,146.193L624.165,146.193z"/>
	<path fill="#EE272C" d="M710.455,175.403c4.71-4.29,9.6-8.37,14.27-12.7c2.86,7.42,5.07,15.1,8.271,22.37
		c4.39,5.64,9.44,10.75,14.05,16.22c-19.47-6.74-39.33-12.6-59.72-15.75c5.79-2.36,11.75-4.27,17.62-6.41
		C707.105,178.433,708.805,176.883,710.455,175.403L710.455,175.403z"/>
	<path fill="#FFFFFF" d="M196.248,222.573c0.29-18.03,4.85-36.06,14.31-51.49c4.13,4.67,7.68,9.82,10.7,15.271
		c-6.18,12.53-8.9,26.75-8.04,40.68C207.448,226.013,201.748,224.623,196.248,222.573L196.248,222.573z"/>
	<path fill="#FFFFFF" d="M218.678,211.023c0.99-5.75,2.41-11.43,4.51-16.89c18.02,0.28,36.12,4.73,51.5,14.31
		c-4.66,4.06-9.78,7.57-15.18,10.58C246.877,212.913,232.667,210.203,218.678,211.023L218.678,211.023z"/>
	<path fill="#EE272C" d="M23.578,221.743c11.58-7.75,23.1-15.57,34.6-23.43c-3.71,15.37-3.77,31.558,0.04,46.917
		C46.698,237.369,35.107,229.602,23.578,221.743L23.578,221.743z"/>
	<path fill="#EE272C" d="M389.717,198.323c11.25,7.72,22.63,15.27,33.851,23.05c-11.21,5.34-22.141,11.268-32.76,17.707
		C393.448,225.623,392.917,211.643,389.717,198.323L389.717,198.323z"/>
	<path fill="#FFFFFF" d="M234.728,216.553c5.66,1.02,11.39,2.11,16.67,4.47c0.06,0.35,0.18,1.05,0.25,1.4
		c-5.4,2.38-11.23,3.5-16.99,4.6C234.888,223.533,234.877,220.033,234.728,216.553L234.728,216.553z"/>
	<path fill="#6E6D70" d="M447.837,244.939c13.27-6.229,28.5-6.959,42.837-4.98c12.53,1.641,25.42,6.921,32.91,17.561
		c5.14,6.821,7.061,15.421,7.39,23.821c-12.55-0.041-25.1-0.012-37.649-0.012c-0.14-2.648-0.101-5.58-1.97-7.699
		c-3.76-4.619-10.068-6.199-15.808-5.85c-3.92,0.17-8.25,0.82-11.16,3.709c-2.66,2.521-2.38,7.301,0.53,9.531
		c4.14,3.43,9.48,4.84,14.53,6.35c13.807,3.68,28.337,5.971,40.797,13.379c8.03,4.762,14.22,12.891,15.57,22.24
		c1.55,10.9-0.15,22.861-7.2,31.66c-8.73,11.451-23.141,16.811-36.99,18.67c-17.978,2.73-37.217,0.6-52.978-8.93
		c-12.29-7.73-19.46-22.209-19.04-36.619c13.3-0.031,26.61,0.01,39.91-0.021c0.29,5.521,1.53,12.061,6.81,15
		c5.89,2.881,12.8,3.471,19.227,2.4c4.221-0.709,8.591-3.1,10.2-7.27c0.931-2.74,1.08-6.199-1.03-8.449
		c-2.619-2.771-6.379-3.971-9.85-5.25c-11.448-3.791-23.188-6.611-34.607-10.48c-8.61-3.07-16.89-8.221-21.73-16.18
		c-4.24-7-4.27-15.602-3.25-23.471C427.158,261.279,436.288,250.33,447.837,244.939L447.837,244.939z"/>
	<path fill="#6E6D70" d="M519.055,242.08c14.75,0.05,29.5-0.041,44.261,0.05c7.09,15.78,14.27,31.52,21.359,47.301
		c7.57-15.75,14.87-31.62,22.431-47.37c46.489,0.09,92.979-0.021,139.46,0.059c-0.101,11.051,0.08,22.11-0.091,33.161
		c-19.979,0.02-39.959,0.02-59.939,0.01c0.02,5.301,0.06,10.6-0.05,15.9c17.149,0.01,34.31,0.02,51.47-0.01
		c0,10.34-0.02,20.68,0.01,31.01c-17.18,0-34.359-0.021-51.529,0.01c0.229,16.359,0.149,32.74,0.05,49.1
		c-13.311,0.041-26.62,0.01-39.931,0.02c0.03-40.52-0.029-81.049,0.03-121.579c-13.729,23.899-27.21,47.94-40.88,71.86
		c-0.97,1.469-1.18,3.209-1.11,4.93c0.061,14.92,0.04,29.85,0.021,44.77c-13.37,0.051-26.74,0.02-40.11,0.01
		c-0.28-15.879,0.22-31.789-0.229-47.66c-4.58-9.199-9.96-17.99-14.83-27.039C539.305,278.44,529.245,260.23,519.055,242.08
		L519.055,242.08z"/>
	<path fill="#FFFFFF" d="M228.238,254.009c6.3-0.29,12.57-1.09,18.74-2.42c-2.5,7.24-5.77,14.19-9.62,20.81
		c-4.16-4.65-7.65-9.84-10.75-15.239C227.147,256.099,227.688,255.049,228.238,254.009L228.238,254.009z"/>
	<path fill="#EE272C" d="M200.498,387.18c13.65,3.299,27.99,3.84,41.76,0.898c-6.58,10.91-12.53,22.182-18.15,33.611
		C216.047,410.319,208.408,398.659,200.498,387.18L200.498,387.18z"/>
	<path fill="#6E6D70" d="M429.257,388.389c5.14-2.68,11.58-2.77,16.89-0.5c3.71,1.561,5.3,5.5,6.09,9.18
		c-2.51,0.23-5.03,0.441-7.53,0.66c-0.87-2-1.78-4.49-4.24-4.859c-2.58-0.439-6.29-0.721-7.67,2.049
		c-0.89,1.842,0.95,3.41,2.58,3.842c4.47,1.51,9.51,1.59,13.49,4.369c5.95,4.23,4.22,14.869-2.66,17.211
		c-5.99,2.02-13.44,2.209-18.71-1.672c-2.67-2.039-3.37-5.439-3.94-8.549c2.5-0.16,5-0.291,7.51-0.43c1,5.41,7.71,6.9,11.979,4.459
		c1.93-1.129,2.04-4.189,0.03-5.289c-4.72-2.35-10.53-1.82-14.86-5.061C423.248,400.09,423.857,391.409,429.257,388.389
		L429.257,388.389z"/>
	<path fill="#6E6D70" d="M740.225,387.159c2.36-0.02,4.721-0.029,7.101-0.029c0.02,3.66,0.03,7.32-0.08,10.99
		c4.229-3.83,12.12-3.641,14.43,2.199c1.38,6.721,0.341,13.701,0.67,20.521c-2.399,0.01-4.8,0.01-7.189,0.02
		c-0.181-5.611,0.37-11.26-0.26-16.84c-0.801-3.621-6.69-2.881-7.19,0.559c-0.8,5.381-0.2,10.852-0.36,16.271
		c-2.38,0-4.739,0-7.109,0C740.215,409.62,740.245,398.389,740.225,387.159L740.225,387.159z"/>
	<path fill="#6E6D70" d="M455.388,387.159c2.43-0.01,4.86-0.01,7.3,0c0,2.15,0,4.311,0,6.48c-2.43,0-4.87-0.01-7.29,0
		C455.388,391.469,455.377,389.309,455.388,387.159L455.388,387.159z"/>
	<path fill="#6E6D70" d="M647.085,387.149c2.87-0.01,5.73-0.01,8.61-0.02c2.24,4.5,4.34,9.07,6.59,13.57
		c2.26-4.541,4.46-9.109,6.83-13.6c2.84,0.039,5.67,0.049,8.52,0.068c-3.68,6.83-7.51,13.602-10.989,20.531
		c-0.95,4.289-0.221,8.779-0.421,13.15c-2.55,0-5.1,0-7.64,0.01c-0.2-4.33,0.57-8.791-0.46-13.02
		C654.665,400.84,650.745,394.059,647.085,387.149L647.085,387.149z"/>
	<path fill="#6E6D70" d="M778.675,387.249c8.3,0,16.601-0.02,24.91,0.012c-0.06,2.119-0.11,4.25-0.17,6.389
		c-5.7,0-11.399-0.01-17.1,0c-0.011,2.33,0,4.67,0.01,7.01c5.02,0.021,10.04,0.01,15.06,0.01c0.03,2.031,0.08,4.07,0.16,6.121
		c-5.06,0.09-10.12,0.061-15.18,0.02c-0.08,4.68-0.061,9.359-0.04,14.041c-2.55,0-5.101,0-7.64,0.01
		C778.675,409.659,778.705,398.45,778.675,387.249L778.675,387.249z"/>
	<path fill="#6E6D70" d="M867.825,387.149c2.41-0.01,4.82-0.01,7.24,0.01c-0.03,2.15-0.04,4.32-0.061,6.49
		c-2.38-0.01-4.75-0.02-7.12-0.02C867.855,391.469,867.835,389.299,867.825,387.149L867.825,387.149z"/>
	<path fill="#6E6D70" d="M925.766,387.159c2.359-0.02,4.72-0.02,7.1-0.029c-0.01,11.24-0.01,22.48,0,33.721
		c-2.36,0-4.71,0.01-7.04,0.029C925.725,409.639,925.835,398.399,925.766,387.159L925.766,387.159z"/>
	<path fill="#6E6D70" d="M726.155,388.809c2.38,0,4.77,0,7.17,0.02c-0.021,2.42-0.03,4.84-0.03,7.271c1.45-0.01,2.93,0.01,4.4,0.02
		c-0.01,1.84-0.01,3.689-0.01,5.539c-1.471-0.01-2.931-0.01-4.381,0c0.11,4.24-0.38,8.541,0.311,12.75
		c0.96,1.26,2.89,0.682,4.25,1.15c-0.01,1.801-0.021,3.6-0.01,5.42c-3.801,0.031-9.86,1.35-11.29-3.459
		c-0.87-5.25-0.21-10.611-0.4-15.9c-1.149,0.01-2.3,0.02-3.44,0.039c-0.029-1.85-0.06-3.68-0.079-5.51
		c0.89-0.02,2.659-0.059,3.55-0.08C726.165,393.649,726.155,391.229,726.155,388.809L726.155,388.809z"/>
	<path fill="#6E6D70" d="M853.865,388.809c2.34-0.01,4.7-0.01,7.06,0c-0.01,2.43-0.02,4.871-0.01,7.32
		c1.45-0.02,2.91-0.029,4.38-0.029c-0.02,1.84-0.05,3.689-0.06,5.549c-1.46,0-2.9,0-4.33,0.031c0.12,4.109-0.28,8.27,0.25,12.369
		c0.67,1.75,2.97,1.029,4.42,1.5c-0.01,1.791-0.021,3.59,0,5.391c-3.81,0.059-9.57,1.41-11.3-3.15
		c-0.971-5.33-0.16-10.801-0.42-16.189c-0.87,0.02-2.61,0.049-3.49,0.059c-0.04-1.859-0.08-3.709-0.09-5.549
		c1.189-0.01,2.39-0.01,3.609,0C853.865,393.668,853.855,391.239,853.865,388.809L853.865,388.809z"/>
	<path fill="#6E6D70" d="M473.107,398.549c2.17-1.609,4.55-3.5,7.449-3.1c3.799,0.15,7.349,3.18,7.688,7.049
		c0.49,6.092,0.04,12.23,0.22,18.342c-2.449,0.01-4.889,0.01-7.328,0.029c-0.1-5.121,0.141-10.24,0-15.35
		c0.11-2.34-2.25-4.4-4.549-3.75c-1.57,0.549-2.91,1.949-2.97,3.68c-0.51,5.119-0.12,10.27-0.22,15.4c-2.39,0-4.77,0-7.14,0.02
		c0-8.26-0.01-16.52,0-24.779c2.311,0,4.61,0,6.93,0.01C473.167,396.719,473.127,397.94,473.107,398.549L473.107,398.549z"/>
	<path fill="#6E6D70" d="M497.335,418.7c-9.58-3.67-8.84-20.391,1.16-23.01c3.63-1.271,7.17,0.639,9.65,3.199
		c-0.021-0.699-0.061-2.1-0.091-2.799c2.29,0,4.591,0,6.891,0.01c-0.18,8.479,0.32,16.99-0.24,25.449
		c-2.49,10.85-21.48,10.961-23.27-0.51c2.42-0.02,4.84,0.01,7.27,0.07c1.73,1.4,3.86,2.889,6.21,2.02
		c3.01-0.461,2.69-4.051,3.33-6.26C505.035,418.909,501.035,420.239,497.335,418.7L497.335,418.7z"/>
	<path fill="#6E6D70" d="M517.995,403.979c0.91-3.469,2.78-7.219,6.61-8.07c5.24-1.309,13.109-0.949,15.199,5.07
		c1.19,6.621-0.319,13.439,1.141,20.051c-2.57-0.551-6.53,1.24-7.91-1.791c-3.42,2.131-7.811,3.43-11.62,1.521
		c-4.95-2.061-6.07-9.842-1.62-12.961c3.95-2.92,9.46-1.51,13.44-4.199c-1.2-4.211-7.44-3.141-8.8,0.479
		C522.285,404.069,520.135,404.04,517.995,403.979L517.995,403.979z"/>
	<path fill="#6E6D70" d="M550.535,398.479c2.08-1.449,4.23-3.209,6.939-3.08c4.82-0.18,9.061,3.711,9.881,8.361
		c0.96,5.209,0.72,11.459-3.44,15.299c-3.62,3.371-9.5,3.17-13.21,0.031c0.13,2.92,0.24,5.84,0.41,8.77
		c-2.44-0.01-4.87-0.01-7.3-0.01c-0.25-10.57-0.011-21.15-0.141-31.721c2.3-0.029,4.61-0.039,6.931-0.039
		C550.585,396.69,550.555,397.889,550.535,398.479L550.535,398.479z"/>
	<path fill="#6E6D70" d="M578.755,395.709c3.83-0.869,8.2-0.34,11.32,2.199c6.28,5.061,6.29,16.102-0.15,21.031
		c-5.13,3.859-13.31,3.76-17.72-1.18C566.215,410.819,568.955,397.43,578.755,395.709L578.755,395.709z"/>
	<path fill="#6E6D70" d="M603.665,399.35c1.851-2.551,4.54-4.08,7.76-3.9c0.05,2.141,0.08,4.279,0.12,6.439
		c-2.59,0.26-6.479,0.35-6.979,3.66c-0.721,5.061-0.29,10.211-0.391,15.311c-2.439-0.01-4.87-0.01-7.29,0
		c0.03-8.281-0.08-16.561,0.07-24.83c2.32,0.029,4.64,0.061,6.98,0.09C603.865,396.93,603.735,398.54,603.665,399.35L603.665,399.35
		z"/>
	<path fill="#6E6D70" d="M615.535,397.559c5.04-3.539,13.03-3,16.75,2.23c2.42,3.07,2.73,7.109,2.9,10.879
		c-5.881,0.021-11.771-0.02-17.65-0.02c0.96,2.201,2.12,5.09,4.98,5.111c2.289,0.42,3.989-1.391,5.659-2.621
		c2.311,0.131,4.63,0.279,6.95,0.48c-2.7,7.48-12.42,10.209-19.04,6.299C608.495,415.29,608.266,402.6,615.535,397.559
		L615.535,397.559z"/>
	<path fill="#6E6D70" d="M678.955,396.29c4.48-1.68,10.04-1.279,13.69,2.039c4.949,4.5,5.54,12.75,1.739,18.16
		c-4.229,5.83-13.6,6.941-19.09,2.281C668.595,412.749,669.995,399.43,678.955,396.29L678.955,396.29z"/>
	<path fill="#6E6D70" d="M805.115,399.149c4.689-5.08,14.03-5.279,18.38,0.34c2.56,3.121,3.01,7.291,3.06,11.191
		c-5.88,0.01-11.75-0.07-17.619,0.039c1,1.961,1.899,4.631,4.46,4.961c2.449,0.719,4.39-1.08,6.09-2.531
		c2.31,0.121,4.609,0.281,6.93,0.49c-2.77,8.66-15.3,10.67-21.32,4.359C800.575,412.87,800.545,404.239,805.115,399.149
		L805.115,399.149z"/>
	<path fill="#6E6D70" d="M830.535,397.629c6.27-4.6,17.91-2.59,19.05,6.23c-2.189,0.119-4.34,0.24-6.51,0.33
		c-1.38-3.861-6.39-4.67-8.99-1.58c3.97,3.25,9.83,2.199,13.75,5.549c3.41,3.07,2.59,9.281-1.319,11.602
		c-4.601,2.658-10.66,2.539-15.301,0.059c-2.81-1.449-3.72-4.619-4.33-7.459c2.23-0.1,4.471-0.18,6.71-0.25
		c0.95,1.379,1.45,3.529,3.38,3.859c2.07,0.631,5.591,0.51,5.791-2.301c-3.15-3.389-8.74-2.109-12.301-4.959
		C826.975,406.11,827.165,400.249,830.535,397.629L830.535,397.629z"/>
	<path fill="#6E6D70" d="M899.936,404.04c0.75-3.57,2.789-7.301,6.63-8.15c5.149-1.23,12.64-0.971,15.01,4.711
		c1.56,6.689-0.31,13.699,1.28,20.43c-2.59-0.551-6.561,1.23-7.95-1.791c-3.42,2.15-7.83,3.441-11.65,1.49
		c-4.689-2.029-5.89-9.129-2.09-12.539c3.96-3.32,9.68-1.961,13.98-4.48c-1.13-4.33-7.391-3.25-8.86,0.33
		C904.165,404.069,902.035,404.059,899.936,404.04L899.936,404.04z"/>
	<path fill="#6E6D70" d="M455.388,396.129c2.43-0.02,4.87-0.029,7.31-0.02c-0.01,8.25-0.02,16.5,0,24.75
		c-2.44-0.01-4.87-0.02-7.31-0.02C455.388,412.6,455.388,404.36,455.388,396.129L455.388,396.129z"/>
	<path fill="#6E6D70" d="M698.925,396.1c2.38-0.01,4.78-0.01,7.181-0.01c0.13,5.5-0.32,11.02,0.199,16.5
		c0.37,3.869,6.591,3.898,7.28,0.18c0.9-5.51,0.271-11.131,0.44-16.67c2.31-0.01,4.62-0.01,6.939-0.01
		c0.01,8.289,0,16.568,0.03,24.859c-2.271,0-4.521,0-6.771,0.02c0-0.561-0.01-1.68-0.01-2.24c-4.16,4.051-12.85,3.98-14.729-2.33
		C698.335,409.709,699.225,402.86,698.925,396.1L698.925,396.1z"/>
	<path fill="#6E6D70" d="M867.855,420.86c0.02-8.26-0.051-16.531,0.04-24.801c2.359,0.02,4.72,0.031,7.09,0.051
		c0.1,8.25,0.02,16.5,0.05,24.75C872.635,420.85,870.245,420.85,867.855,420.86L867.855,420.86z"/>
	<path fill="#6E6D70" d="M876.105,396.11c2.54-0.01,5.09-0.02,7.649-0.031c1.48,5,2.9,10.021,4.49,14.99
		c1.35-4.99,2.58-10.02,4-14.99c2.55,0.012,5.11,0.021,7.68,0.041c-2.92,8.199-5.6,16.48-8.39,24.73
		c-2.311-0.01-4.62-0.01-6.92-0.01C881.805,412.59,878.896,404.37,876.105,396.11L876.105,396.11z"/>
	<path fill="#FFFFFF" d="M500.715,401.84c2.891-1.66,6.681,0.578,7.051,3.77c0.85,3.41-1.341,7.98-5.311,7.6
		C496.835,412.95,495.885,403.999,500.715,401.84L500.715,401.84z"/>
	<path fill="#FFFFFF" d="M553.805,401.819c2.78-1.689,6.11,0.691,6.53,3.631c0.69,3.369,0.38,8.01-3.02,9.859
		c-2.91,1.061-5.95-1.17-6.29-4.119C550.555,407.989,550.516,403.579,553.805,401.819L553.805,401.819z"/>
	<path fill="#FFFFFF" d="M579.615,401.68c3.06-1.762,7.02,0.568,7.53,3.898c0.819,3.75,0.01,9.471-4.61,10.182
		C575.385,416.27,574.266,404.668,579.615,401.68L579.615,401.68z"/>
	<path fill="#FFFFFF" d="M617.516,405.049c1.27-1.721,2.459-4.07,4.939-4.029c2.71-0.441,4.35,1.939,5.48,3.99
		C624.465,405.139,620.985,405.149,617.516,405.049L617.516,405.049z"/>
	<path fill="#FFFFFF" d="M681.675,401.69c3.4-1.971,7.65,1.07,7.66,4.779c0.55,3.6-0.46,8.811-4.84,9.301
		C677.436,416.12,676.415,404.68,681.675,401.69L681.675,401.69z"/>
	<path fill="#FFFFFF" d="M808.975,405.03c1.271-1.93,2.801-4.35,5.511-4.02c2.5-0.131,3.739,2.219,4.87,4.039
		C815.896,405.139,812.425,405.139,808.975,405.03L808.975,405.03z"/>
	<path fill="#FFFFFF" d="M524.835,411.93c2.34-1.941,5.681-1.881,8.51-2.65c0.2,2.77-0.81,5.869-3.92,6.369
		C527.095,416.989,522.555,414.668,524.835,411.93L524.835,411.93z"/>
	<path fill="#FFFFFF" d="M905.475,413.569c2.07-3.449,6.28-3.469,9.78-4.279c-0.34,1.77,0.15,4.16-1.689,5.27
		C911.045,416.629,907.355,416.28,905.475,413.569L905.475,413.569z"/>
</g>
</svg>
